<svg id="visual" viewBox="0 0 900 600" width="900" height="600" xmlns="http://www.w3.org/2000/svg" xmlns:xlink="http://www.w3.org/1999/xlink" version="1.1"><rect x="0" y="0" width="900" height="600" fill="#fff"></rect><path d="M0 408L16.7 399.7C33.3 391.3 66.7 374.7 100 375.2C133.3 375.7 166.7 393.3 200 398.5C233.3 403.7 266.7 396.3 300 378.8C333.3 361.3 366.7 333.7 400 323.7C433.3 313.7 466.7 321.3 500 335.3C533.3 349.3 566.7 369.7 600 360.3C633.3 351 666.7 312 700 296.7C733.3 281.3 766.7 289.7 800 310.8C833.3 332 866.7 366 883.3 383L900 400L900 0L883.3 0C866.7 0 833.3 0 800 0C766.7 0 733.3 0 700 0C666.7 0 633.3 0 600 0C566.7 0 533.3 0 500 0C466.7 0 433.3 0 400 0C366.7 0 333.3 0 300 0C266.7 0 233.3 0 200 0C166.7 0 133.3 0 100 0C66.7 0 33.3 0 16.7 0L0 0Z" fill="#52a3d6"></path><path d="M0 258L16.7 261.3C33.3 264.7 66.7 271.3 100 284.5C133.3 297.7 166.7 317.3 200 310.7C233.3 304 266.7 271 300 272.2C333.3 273.3 366.7 308.7 400 319C433.3 329.3 466.7 314.7 500 304.8C533.3 295 566.7 290 600 284.2C633.3 278.3 666.7 271.7 700 266.7C733.3 261.7 766.7 258.3 800 260.5C833.3 262.7 866.7 270.3 883.3 274.2L900 278L900 0L883.3 0C866.7 0 833.3 0 800 0C766.7 0 733.3 0 700 0C666.7 0 633.3 0 600 0C566.7 0 533.3 0 500 0C466.7 0 433.3 0 400 0C366.7 0 333.3 0 300 0C266.7 0 233.3 0 200 0C166.7 0 133.3 0 100 0C66.7 0 33.3 0 16.7 0L0 0Z" fill="#5998d3"></path><path d="M0 201L16.7 214.8C33.3 228.7 66.7 256.3 100 264.8C133.3 273.3 166.7 262.7 200 256.2C233.3 249.7 266.7 247.3 300 237.8C333.3 228.3 366.7 211.7 400 218.5C433.3 225.3 466.7 255.7 500 261.2C533.3 266.7 566.7 247.3 600 248.2C633.3 249 666.7 270 700 275.5C733.3 281 766.7 271 800 262.7C833.3 254.3 866.7 247.7 883.3 244.3L900 241L900 0L883.3 0C866.7 0 833.3 0 800 0C766.7 0 733.3 0 700 0C666.7 0 633.3 0 600 0C566.7 0 533.3 0 500 0C466.7 0 433.3 0 400 0C366.7 0 333.3 0 300 0C266.7 0 233.3 0 200 0C166.7 0 133.3 0 100 0C66.7 0 33.3 0 16.7 0L0 0Z" fill="#658dce"></path><path d="M0 200L16.7 202C33.3 204 66.7 208 100 200C133.3 192 166.7 172 200 175C233.3 178 266.7 204 300 204C333.3 204 366.7 178 400 168.8C433.3 159.7 466.7 167.3 500 172.2C533.3 177 566.7 179 600 185.7C633.3 192.3 666.7 203.7 700 212C733.3 220.3 766.7 225.7 800 223.2C833.3 220.7 866.7 210.3 883.3 205.2L900 200L900 0L883.3 0C866.7 0 833.3 0 800 0C766.7 0 733.3 0 700 0C666.7 0 633.3 0 600 0C566.7 0 533.3 0 500 0C466.7 0 433.3 0 400 0C366.7 0 333.3 0 300 0C266.7 0 233.3 0 200 0C166.7 0 133.3 0 100 0C66.7 0 33.3 0 16.7 0L0 0Z" fill="#7281c7"></path><path d="M0 138L16.7 141.7C33.3 145.3 66.7 152.7 100 156C133.3 159.3 166.7 158.7 200 149.8C233.3 141 266.7 124 300 126.3C333.3 128.7 366.7 150.3 400 151.3C433.3 152.3 466.7 132.7 500 126.7C533.3 120.7 566.7 128.3 600 135.7C633.3 143 666.7 150 700 146.8C733.3 143.7 766.7 130.3 800 130.5C833.3 130.7 866.7 144.3 883.3 151.2L900 158L900 0L883.3 0C866.7 0 833.3 0 800 0C766.7 0 733.3 0 700 0C666.7 0 633.3 0 600 0C566.7 0 533.3 0 500 0C466.7 0 433.3 0 400 0C366.7 0 333.3 0 300 0C266.7 0 233.3 0 200 0C166.7 0 133.3 0 100 0C66.7 0 33.3 0 16.7 0L0 0Z" fill="#7e74bc"></path><path d="M0 75L16.7 75C33.3 75 66.7 75 100 72.8C133.3 70.7 166.7 66.3 200 70.3C233.3 74.3 266.7 86.7 300 90.2C333.3 93.7 366.7 88.3 400 86.5C433.3 84.7 466.7 86.3 500 84.3C533.3 82.3 566.7 76.7 600 78.5C633.3 80.3 666.7 89.7 700 90.8C733.3 92 766.7 85 800 81.2C833.3 77.3 866.7 76.7 883.3 76.3L900 76L900 0L883.3 0C866.7 0 833.3 0 800 0C766.7 0 733.3 0 700 0C666.7 0 633.3 0 600 0C566.7 0 533.3 0 500 0C466.7 0 433.3 0 400 0C366.7 0 333.3 0 300 0C266.7 0 233.3 0 200 0C166.7 0 133.3 0 100 0C66.7 0 33.3 0 16.7 0L0 0Z" fill="#8a67ae"></path></svg>